<mxfile host="app.diagrams.net" agent="Mozilla/5.0 (Macintosh; Intel Mac OS X 10_15_7) AppleWebKit/537.36 (KHTML, like Gecko) Chrome/131.0.0.0 Safari/537.36" version="26.0.4">
  <diagram name="Page-1" id="b520641d-4fe3-3701-9064-5fc419738815">
    <mxGraphModel dx="1088" dy="688" grid="1" gridSize="10" guides="1" tooltips="1" connect="1" arrows="1" fold="1" page="1" pageScale="1" pageWidth="4681" pageHeight="3300" background="none" math="0" shadow="0">
      <root>
        <mxCell id="0" />
        <mxCell id="1" parent="0" />
        <mxCell id="21ea969265ad0168-10" value="number_of_TBD_resources" style="swimlane;html=1;fontStyle=0;childLayout=stackLayout;horizontal=1;startSize=26;fillColor=#dae8fc;horizontalStack=0;resizeParent=1;resizeLast=0;collapsible=1;marginBottom=0;swimlaneFillColor=#ffffff;align=center;rounded=1;shadow=0;comic=0;labelBackgroundColor=none;strokeWidth=1;fontFamily=Verdana;fontSize=12;strokeColor=#6c8ebf;" parent="1" vertex="1">
          <mxGeometry x="150" y="200" width="210" height="110" as="geometry" />
        </mxCell>
        <mxCell id="21ea969265ad0168-11" value="&lt;b&gt;QP: &lt;/b&gt;Please provide the number of TBD resources you would like to add&lt;div&gt;&lt;br&gt;&lt;/div&gt;" style="text;html=1;strokeColor=none;fillColor=none;spacingLeft=4;spacingRight=4;whiteSpace=wrap;overflow=hidden;rotatable=0;points=[[0,0.5],[1,0.5]];portConstraint=eastwest;" parent="21ea969265ad0168-10" vertex="1">
          <mxGeometry y="26" width="210" height="44" as="geometry" />
        </mxCell>
        <mxCell id="21ea969265ad0168-12" value="&lt;b&gt;COND: &lt;/b&gt;field_value &amp;gt; 0 &amp;amp; &amp;lt;= 10" style="text;html=1;strokeColor=none;fillColor=none;spacingLeft=4;spacingRight=4;whiteSpace=wrap;overflow=hidden;rotatable=0;points=[[0,0.5],[1,0.5]];portConstraint=eastwest;" parent="21ea969265ad0168-10" vertex="1">
          <mxGeometry y="70" width="210" height="26" as="geometry" />
        </mxCell>
        <mxCell id="Fwdu9OYfRQx8FBcxNtsd-2" value="named_TBD_resource_search_criteria" style="swimlane;html=1;fontStyle=0;childLayout=stackLayout;horizontal=1;startSize=26;fillColor=#dae8fc;horizontalStack=0;resizeParent=1;resizeLast=0;collapsible=1;marginBottom=0;swimlaneFillColor=#ffffff;align=center;rounded=1;shadow=0;comic=0;labelBackgroundColor=none;strokeWidth=1;fontFamily=Verdana;fontSize=12;strokeColor=#6c8ebf;" parent="1" vertex="1">
          <mxGeometry x="470" y="200" width="270" height="130" as="geometry" />
        </mxCell>
        <mxCell id="Fwdu9OYfRQx8FBcxNtsd-3" value="&lt;b&gt;QP: &lt;/b&gt;Please provide either name or GUID of the resource. Name should be given in the either of one following format - firstName (OR) lastName (OR) lastName, firstName" style="text;html=1;strokeColor=none;fillColor=none;spacingLeft=4;spacingRight=4;whiteSpace=wrap;overflow=hidden;rotatable=0;points=[[0,0.5],[1,0.5]];portConstraint=eastwest;" parent="Fwdu9OYfRQx8FBcxNtsd-2" vertex="1">
          <mxGeometry y="26" width="270" height="64" as="geometry" />
        </mxCell>
        <mxCell id="Fwdu9OYfRQx8FBcxNtsd-4" value="&lt;b&gt;COND: &lt;/b&gt;field_value length &amp;gt; 0" style="text;html=1;strokeColor=none;fillColor=none;spacingLeft=4;spacingRight=4;whiteSpace=wrap;overflow=hidden;rotatable=0;points=[[0,0.5],[1,0.5]];portConstraint=eastwest;" parent="Fwdu9OYfRQx8FBcxNtsd-2" vertex="1">
          <mxGeometry y="90" width="270" height="26" as="geometry" />
        </mxCell>
        <mxCell id="Fwdu9OYfRQx8FBcxNtsd-5" value="invalid_number_of_TBD_resources" style="swimlane;html=1;fontStyle=0;childLayout=stackLayout;horizontal=1;startSize=26;fillColor=#f8cecc;horizontalStack=0;resizeParent=1;resizeLast=0;collapsible=1;marginBottom=0;swimlaneFillColor=#ffffff;align=center;rounded=1;shadow=0;comic=0;labelBackgroundColor=none;strokeWidth=1;fontFamily=Verdana;fontSize=12;strokeColor=#b85450;" parent="1" vertex="1">
          <mxGeometry x="150" y="425" width="250" height="110" as="geometry" />
        </mxCell>
        <mxCell id="Fwdu9OYfRQx8FBcxNtsd-6" value="&lt;b&gt;QP:&amp;nbsp; &lt;/b&gt;Please provide the value in the range of 1-10 for number of TBD resource&lt;div&gt;&lt;br&gt;&lt;/div&gt;" style="text;html=1;strokeColor=none;fillColor=none;spacingLeft=4;spacingRight=4;whiteSpace=wrap;overflow=hidden;rotatable=0;points=[[0,0.5],[1,0.5]];portConstraint=eastwest;" parent="Fwdu9OYfRQx8FBcxNtsd-5" vertex="1">
          <mxGeometry y="26" width="250" height="44" as="geometry" />
        </mxCell>
        <mxCell id="Fwdu9OYfRQx8FBcxNtsd-7" value="&lt;b&gt;BDT: &lt;/b&gt;Text" style="text;html=1;strokeColor=none;fillColor=none;spacingLeft=4;spacingRight=4;whiteSpace=wrap;overflow=hidden;rotatable=0;points=[[0,0.5],[1,0.5]];portConstraint=eastwest;" parent="Fwdu9OYfRQx8FBcxNtsd-5" vertex="1">
          <mxGeometry y="70" width="250" height="26" as="geometry" />
        </mxCell>
        <mxCell id="Fwdu9OYfRQx8FBcxNtsd-15" value="" style="rounded=0;whiteSpace=wrap;html=1;" parent="1" vertex="1">
          <mxGeometry x="1050" y="30" width="410" height="190" as="geometry" />
        </mxCell>
        <mxCell id="Fwdu9OYfRQx8FBcxNtsd-16" value="&lt;b&gt;&amp;lt;field_name&amp;gt;&lt;/b&gt;" style="swimlane;html=1;fontStyle=0;childLayout=stackLayout;horizontal=1;startSize=26;horizontalStack=0;resizeParent=1;resizeLast=0;collapsible=1;marginBottom=0;swimlaneFillColor=#ffffff;align=center;rounded=1;shadow=0;comic=0;labelBackgroundColor=none;strokeWidth=1;fontFamily=Verdana;fontSize=12;" parent="1" vertex="1">
          <mxGeometry x="1070" y="90" width="210" height="100" as="geometry" />
        </mxCell>
        <mxCell id="Fwdu9OYfRQx8FBcxNtsd-18" value="&lt;b&gt;QP - Question Prompt&lt;/b&gt;" style="text;html=1;strokeColor=none;fillColor=none;spacingLeft=4;spacingRight=4;whiteSpace=wrap;overflow=hidden;rotatable=0;points=[[0,0.5],[1,0.5]];portConstraint=eastwest;" parent="Fwdu9OYfRQx8FBcxNtsd-16" vertex="1">
          <mxGeometry y="26" width="210" height="26" as="geometry" />
        </mxCell>
        <mxCell id="Fwdu9OYfRQx8FBcxNtsd-19" value="&lt;b&gt;POSITIVE FLOW&lt;/b&gt;" style="rounded=1;whiteSpace=wrap;html=1;fillColor=#dae8fc;strokeColor=#6c8ebf;" parent="1" vertex="1">
          <mxGeometry x="1310" y="90" width="120" height="30" as="geometry" />
        </mxCell>
        <mxCell id="Fwdu9OYfRQx8FBcxNtsd-20" value="&lt;b&gt;NEGATIVE FLOW&lt;/b&gt;" style="rounded=1;whiteSpace=wrap;html=1;fillColor=#f8cecc;strokeColor=#b85450;" parent="1" vertex="1">
          <mxGeometry x="1310" y="130" width="120" height="30" as="geometry" />
        </mxCell>
        <mxCell id="Fwdu9OYfRQx8FBcxNtsd-22" value="&lt;b&gt;&lt;font style=&quot;font-size: 24px;&quot;&gt;LEGEND&lt;/font&gt;&lt;/b&gt;" style="text;html=1;align=center;verticalAlign=middle;resizable=0;points=[];autosize=1;strokeColor=none;fillColor=none;" parent="1" vertex="1">
          <mxGeometry x="1210" y="40" width="120" height="40" as="geometry" />
        </mxCell>
        <mxCell id="Fwdu9OYfRQx8FBcxNtsd-23" value="&lt;b&gt;COND - Condition&lt;/b&gt;" style="text;html=1;strokeColor=none;fillColor=none;spacingLeft=4;spacingRight=4;whiteSpace=wrap;overflow=hidden;rotatable=0;points=[[0,0.5],[1,0.5]];portConstraint=eastwest;" parent="1" vertex="1">
          <mxGeometry x="1071" y="135" width="210" height="26" as="geometry" />
        </mxCell>
        <mxCell id="Fwdu9OYfRQx8FBcxNtsd-24" value="&lt;b&gt;BDT - Bot Display Text&lt;/b&gt;" style="text;html=1;strokeColor=none;fillColor=none;spacingLeft=4;spacingRight=4;whiteSpace=wrap;overflow=hidden;rotatable=0;points=[[0,0.5],[1,0.5]];portConstraint=eastwest;" parent="1" vertex="1">
          <mxGeometry x="1071" y="154" width="210" height="26" as="geometry" />
        </mxCell>
        <mxCell id="Fwdu9OYfRQx8FBcxNtsd-25" value="invalid_named_TBD_resource_search_criteria" style="swimlane;html=1;fontStyle=0;childLayout=stackLayout;horizontal=1;startSize=26;fillColor=#f8cecc;horizontalStack=0;resizeParent=1;resizeLast=0;collapsible=1;marginBottom=0;swimlaneFillColor=#ffffff;align=center;rounded=1;shadow=0;comic=0;labelBackgroundColor=none;strokeWidth=1;fontFamily=Verdana;fontSize=12;strokeColor=#b85450;" parent="1" vertex="1">
          <mxGeometry x="460" y="430" width="320" height="110" as="geometry" />
        </mxCell>
        <mxCell id="Fwdu9OYfRQx8FBcxNtsd-26" value="&lt;b&gt;QP:&amp;nbsp; &lt;/b&gt;Please provide valid GUID or name of the resource in the following format -&amp;nbsp;- firstName (OR) lastName (OR) lastName, firstName&lt;div&gt;&lt;br&gt;&lt;/div&gt;" style="text;html=1;strokeColor=none;fillColor=none;spacingLeft=4;spacingRight=4;whiteSpace=wrap;overflow=hidden;rotatable=0;points=[[0,0.5],[1,0.5]];portConstraint=eastwest;" parent="Fwdu9OYfRQx8FBcxNtsd-25" vertex="1">
          <mxGeometry y="26" width="320" height="54" as="geometry" />
        </mxCell>
        <mxCell id="Fwdu9OYfRQx8FBcxNtsd-27" value="&lt;b&gt;BDT: &lt;/b&gt;Text" style="text;html=1;strokeColor=none;fillColor=none;spacingLeft=4;spacingRight=4;whiteSpace=wrap;overflow=hidden;rotatable=0;points=[[0,0.5],[1,0.5]];portConstraint=eastwest;" parent="Fwdu9OYfRQx8FBcxNtsd-25" vertex="1">
          <mxGeometry y="80" width="320" height="26" as="geometry" />
        </mxCell>
        <mxCell id="Fwdu9OYfRQx8FBcxNtsd-31" value="" style="endArrow=classic;html=1;rounded=0;entryX=0;entryY=0.5;entryDx=0;entryDy=0;" parent="1" target="Fwdu9OYfRQx8FBcxNtsd-3" edge="1">
          <mxGeometry width="50" height="50" relative="1" as="geometry">
            <mxPoint x="360" y="270" as="sourcePoint" />
            <mxPoint x="410" y="220" as="targetPoint" />
          </mxGeometry>
        </mxCell>
        <mxCell id="Fwdu9OYfRQx8FBcxNtsd-32" value="" style="endArrow=classic;html=1;rounded=0;" parent="1" edge="1">
          <mxGeometry width="50" height="50" relative="1" as="geometry">
            <mxPoint x="230" y="310" as="sourcePoint" />
            <mxPoint x="300" y="420" as="targetPoint" />
          </mxGeometry>
        </mxCell>
        <mxCell id="Fwdu9OYfRQx8FBcxNtsd-33" value="" style="endArrow=classic;html=1;rounded=0;entryX=0.531;entryY=0;entryDx=0;entryDy=0;entryPerimeter=0;" parent="1" target="Fwdu9OYfRQx8FBcxNtsd-25" edge="1">
          <mxGeometry width="50" height="50" relative="1" as="geometry">
            <mxPoint x="550" y="330" as="sourcePoint" />
            <mxPoint x="620" y="440" as="targetPoint" />
          </mxGeometry>
        </mxCell>
        <mxCell id="Cd402E3ZITgnZ-SI4iMz-1" value="api/Staff/SearchForEmployee" style="swimlane;html=1;fontStyle=0;childLayout=stackLayout;horizontal=1;startSize=26;fillColor=#f5f5f5;horizontalStack=0;resizeParent=1;resizeLast=0;collapsible=1;marginBottom=0;swimlaneFillColor=#ffffff;align=center;rounded=1;shadow=0;comic=0;labelBackgroundColor=none;strokeWidth=1;fontFamily=Verdana;fontSize=12;strokeColor=#666666;fontColor=#333333;" parent="1" vertex="1">
          <mxGeometry x="870" y="280" width="320" height="80" as="geometry" />
        </mxCell>
        <mxCell id="Cd402E3ZITgnZ-SI4iMz-2" value="&lt;b&gt;METHOD: &lt;/b&gt;GET&lt;br&gt;&lt;div&gt;&lt;b&gt;RETURN TYPE: &lt;/b&gt;Array&lt;/div&gt;" style="text;html=1;strokeColor=none;fillColor=none;spacingLeft=4;spacingRight=4;whiteSpace=wrap;overflow=hidden;rotatable=0;points=[[0,0.5],[1,0.5]];portConstraint=eastwest;" parent="Cd402E3ZITgnZ-SI4iMz-1" vertex="1">
          <mxGeometry y="26" width="320" height="54" as="geometry" />
        </mxCell>
        <mxCell id="Cd402E3ZITgnZ-SI4iMz-4" value="&lt;b&gt;API CALL&lt;/b&gt;" style="rounded=1;whiteSpace=wrap;html=1;fillColor=#f5f5f5;strokeColor=#666666;fontColor=#333333;" parent="1" vertex="1">
          <mxGeometry x="1310" y="170" width="120" height="30" as="geometry" />
        </mxCell>
        <mxCell id="Cd402E3ZITgnZ-SI4iMz-5" value="" style="endArrow=classic;html=1;rounded=0;entryX=-0.009;entryY=0.278;entryDx=0;entryDy=0;entryPerimeter=0;" parent="1" target="Cd402E3ZITgnZ-SI4iMz-2" edge="1">
          <mxGeometry width="50" height="50" relative="1" as="geometry">
            <mxPoint x="740" y="271" as="sourcePoint" />
            <mxPoint x="850" y="259" as="targetPoint" />
          </mxGeometry>
        </mxCell>
        <mxCell id="HfnuaF-zC5cXOm_QLU1m-1" value="searchForEmployeeApi_results" style="swimlane;html=1;fontStyle=0;childLayout=stackLayout;horizontal=1;startSize=26;fillColor=#dae8fc;horizontalStack=0;resizeParent=1;resizeLast=0;collapsible=1;marginBottom=0;swimlaneFillColor=#ffffff;align=center;rounded=1;shadow=0;comic=0;labelBackgroundColor=none;strokeWidth=1;fontFamily=Verdana;fontSize=12;strokeColor=#6c8ebf;" vertex="1" parent="1">
          <mxGeometry x="1290" y="295" width="270" height="105" as="geometry" />
        </mxCell>
        <mxCell id="HfnuaF-zC5cXOm_QLU1m-12" value="" style="endArrow=none;html=1;rounded=0;entryX=1.006;entryY=0.019;entryDx=0;entryDy=0;entryPerimeter=0;" edge="1" parent="HfnuaF-zC5cXOm_QLU1m-1" target="HfnuaF-zC5cXOm_QLU1m-5">
          <mxGeometry width="50" height="50" relative="1" as="geometry">
            <mxPoint y="52" as="sourcePoint" />
            <mxPoint x="50" y="2" as="targetPoint" />
          </mxGeometry>
        </mxCell>
        <mxCell id="HfnuaF-zC5cXOm_QLU1m-3" value="&lt;b&gt;COND: &lt;/b&gt;field_value length = 1" style="text;html=1;strokeColor=none;fillColor=none;spacingLeft=4;spacingRight=4;whiteSpace=wrap;overflow=hidden;rotatable=0;points=[[0,0.5],[1,0.5]];portConstraint=eastwest;" vertex="1" parent="HfnuaF-zC5cXOm_QLU1m-1">
          <mxGeometry y="26" width="270" height="26" as="geometry" />
        </mxCell>
        <mxCell id="HfnuaF-zC5cXOm_QLU1m-14" value="" style="endArrow=none;html=1;rounded=0;exitX=0.001;exitY=-0.084;exitDx=0;exitDy=0;exitPerimeter=0;entryX=1.001;entryY=-0.084;entryDx=0;entryDy=0;entryPerimeter=0;" edge="1" parent="HfnuaF-zC5cXOm_QLU1m-1" source="HfnuaF-zC5cXOm_QLU1m-6" target="HfnuaF-zC5cXOm_QLU1m-6">
          <mxGeometry width="50" height="50" relative="1" as="geometry">
            <mxPoint y="82.5" as="sourcePoint" />
            <mxPoint x="290" y="85" as="targetPoint" />
          </mxGeometry>
        </mxCell>
        <mxCell id="HfnuaF-zC5cXOm_QLU1m-5" value="&lt;b&gt;COND: &lt;/b&gt;field_value length &amp;gt; 1" style="text;html=1;strokeColor=none;fillColor=none;spacingLeft=4;spacingRight=4;whiteSpace=wrap;overflow=hidden;rotatable=0;points=[[0,0.5],[1,0.5]];portConstraint=eastwest;" vertex="1" parent="HfnuaF-zC5cXOm_QLU1m-1">
          <mxGeometry y="52" width="270" height="26" as="geometry" />
        </mxCell>
        <mxCell id="HfnuaF-zC5cXOm_QLU1m-6" value="&lt;b&gt;COND: &lt;/b&gt;field_value length = 0" style="text;html=1;strokeColor=none;fillColor=none;spacingLeft=4;spacingRight=4;whiteSpace=wrap;overflow=hidden;rotatable=0;points=[[0,0.5],[1,0.5]];portConstraint=eastwest;" vertex="1" parent="HfnuaF-zC5cXOm_QLU1m-1">
          <mxGeometry y="78" width="270" height="26" as="geometry" />
        </mxCell>
        <mxCell id="HfnuaF-zC5cXOm_QLU1m-4" value="" style="endArrow=classic;html=1;rounded=0;entryX=-0.015;entryY=0.656;entryDx=0;entryDy=0;entryPerimeter=0;" edge="1" parent="1">
          <mxGeometry width="50" height="50" relative="1" as="geometry">
            <mxPoint x="1191.5" y="320" as="sourcePoint" />
            <mxPoint x="1285.9499999999998" y="362.9839999999999" as="targetPoint" />
          </mxGeometry>
        </mxCell>
        <mxCell id="HfnuaF-zC5cXOm_QLU1m-7" value="number_of_hours" style="swimlane;html=1;fontStyle=0;childLayout=stackLayout;horizontal=1;startSize=26;fillColor=#dae8fc;horizontalStack=0;resizeParent=1;resizeLast=0;collapsible=1;marginBottom=0;swimlaneFillColor=#ffffff;align=center;rounded=1;shadow=0;comic=0;labelBackgroundColor=none;strokeWidth=1;fontFamily=Verdana;fontSize=12;strokeColor=#6c8ebf;" vertex="1" parent="1">
          <mxGeometry x="1620" y="230" width="270" height="80" as="geometry" />
        </mxCell>
        <mxCell id="HfnuaF-zC5cXOm_QLU1m-8" value="&lt;b&gt;QP: &lt;/b&gt;Please provide the number of hours you would like to allocate to each TBD resource ?" style="text;html=1;strokeColor=none;fillColor=none;spacingLeft=4;spacingRight=4;whiteSpace=wrap;overflow=hidden;rotatable=0;points=[[0,0.5],[1,0.5]];portConstraint=eastwest;" vertex="1" parent="HfnuaF-zC5cXOm_QLU1m-7">
          <mxGeometry y="26" width="270" height="34" as="geometry" />
        </mxCell>
        <mxCell id="HfnuaF-zC5cXOm_QLU1m-11" value="" style="endArrow=classic;html=1;rounded=0;entryX=-0.015;entryY=0.656;entryDx=0;entryDy=0;entryPerimeter=0;exitX=1;exitY=0.5;exitDx=0;exitDy=0;" edge="1" parent="1" source="HfnuaF-zC5cXOm_QLU1m-3">
          <mxGeometry width="50" height="50" relative="1" as="geometry">
            <mxPoint x="1525.55" y="237.01999999999998" as="sourcePoint" />
            <mxPoint x="1619.9999999999998" y="280.0039999999999" as="targetPoint" />
          </mxGeometry>
        </mxCell>
        <mxCell id="HfnuaF-zC5cXOm_QLU1m-15" value="named_TBD_resource_details" style="swimlane;html=1;fontStyle=0;childLayout=stackLayout;horizontal=1;startSize=26;fillColor=#dae8fc;horizontalStack=0;resizeParent=1;resizeLast=0;collapsible=1;marginBottom=0;swimlaneFillColor=#ffffff;align=center;rounded=1;shadow=0;comic=0;labelBackgroundColor=none;strokeWidth=1;fontFamily=Verdana;fontSize=12;strokeColor=#6c8ebf;" vertex="1" parent="1">
          <mxGeometry x="1630" y="350" width="270" height="60" as="geometry" />
        </mxCell>
        <mxCell id="HfnuaF-zC5cXOm_QLU1m-22" value="" style="endArrow=classic;html=1;rounded=0;exitX=1;exitY=0.5;exitDx=0;exitDy=0;" edge="1" parent="HfnuaF-zC5cXOm_QLU1m-15">
          <mxGeometry width="50" height="50" relative="1" as="geometry">
            <mxPoint x="120" as="sourcePoint" />
            <mxPoint x="130" y="-40" as="targetPoint" />
          </mxGeometry>
        </mxCell>
        <mxCell id="HfnuaF-zC5cXOm_QLU1m-16" value="&lt;b&gt;QP: &lt;/b&gt;Please select the named resource" style="text;html=1;strokeColor=none;fillColor=none;spacingLeft=4;spacingRight=4;whiteSpace=wrap;overflow=hidden;rotatable=0;points=[[0,0.5],[1,0.5]];portConstraint=eastwest;" vertex="1" parent="HfnuaF-zC5cXOm_QLU1m-15">
          <mxGeometry y="26" width="270" height="34" as="geometry" />
        </mxCell>
        <mxCell id="HfnuaF-zC5cXOm_QLU1m-17" value="" style="endArrow=classic;html=1;rounded=0;entryX=-0.007;entryY=0.402;entryDx=0;entryDy=0;entryPerimeter=0;exitX=1;exitY=0.5;exitDx=0;exitDy=0;" edge="1" parent="1" target="HfnuaF-zC5cXOm_QLU1m-16">
          <mxGeometry width="50" height="50" relative="1" as="geometry">
            <mxPoint x="1560" y="360" as="sourcePoint" />
            <mxPoint x="1619.9999999999998" y="306.0039999999999" as="targetPoint" />
          </mxGeometry>
        </mxCell>
        <mxCell id="HfnuaF-zC5cXOm_QLU1m-18" value="invalid_searchForEmployeeApi_results" style="swimlane;html=1;fontStyle=0;childLayout=stackLayout;horizontal=1;startSize=26;fillColor=#f8cecc;horizontalStack=0;resizeParent=1;resizeLast=0;collapsible=1;marginBottom=0;swimlaneFillColor=#ffffff;align=center;rounded=1;shadow=0;comic=0;labelBackgroundColor=none;strokeWidth=1;fontFamily=Verdana;fontSize=12;strokeColor=#b85450;" vertex="1" parent="1">
          <mxGeometry x="1620" y="430" width="270" height="120" as="geometry" />
        </mxCell>
        <mxCell id="HfnuaF-zC5cXOm_QLU1m-19" value="&lt;b&gt;QP: &lt;/b&gt;Sorry i couldn&#39;t find the employee with the name you provided with. Please provide another named resource" style="text;html=1;strokeColor=none;fillColor=none;spacingLeft=4;spacingRight=4;whiteSpace=wrap;overflow=hidden;rotatable=0;points=[[0,0.5],[1,0.5]];portConstraint=eastwest;" vertex="1" parent="HfnuaF-zC5cXOm_QLU1m-18">
          <mxGeometry y="26" width="270" height="54" as="geometry" />
        </mxCell>
        <mxCell id="HfnuaF-zC5cXOm_QLU1m-26" value="&lt;b&gt;BDT: &lt;/b&gt;Text" style="text;html=1;strokeColor=none;fillColor=none;spacingLeft=4;spacingRight=4;whiteSpace=wrap;overflow=hidden;rotatable=0;points=[[0,0.5],[1,0.5]];portConstraint=eastwest;" vertex="1" parent="HfnuaF-zC5cXOm_QLU1m-18">
          <mxGeometry y="80" width="270" height="30" as="geometry" />
        </mxCell>
        <mxCell id="HfnuaF-zC5cXOm_QLU1m-20" value="" style="endArrow=classic;html=1;rounded=0;entryX=-0.002;entryY=0.317;entryDx=0;entryDy=0;entryPerimeter=0;exitX=1;exitY=0.5;exitDx=0;exitDy=0;" edge="1" parent="1" target="HfnuaF-zC5cXOm_QLU1m-19">
          <mxGeometry width="50" height="50" relative="1" as="geometry">
            <mxPoint x="1560" y="400" as="sourcePoint" />
            <mxPoint x="1618" y="410" as="targetPoint" />
          </mxGeometry>
        </mxCell>
        <mxCell id="HfnuaF-zC5cXOm_QLU1m-21" value="Need to check this&amp;nbsp;" style="text;html=1;align=center;verticalAlign=middle;whiteSpace=wrap;rounded=0;" vertex="1" parent="1">
          <mxGeometry x="1520" y="220" width="60" height="30" as="geometry" />
        </mxCell>
      </root>
    </mxGraphModel>
  </diagram>
</mxfile>
